<svg width="114" height="29" viewBox="0 0 114 29" fill="none" xmlns="http://www.w3.org/2000/svg">
<path d="M7.316 1.168V9H6.678V2.73L3.928 9H3.422L0.65 2.785L0.661 9H0.023V1.168H0.584L3.686 8.186L6.744 1.168H7.316ZM9.58922 6.162V6.195C9.58922 6.93567 9.75789 7.504 10.0952 7.9C10.4399 8.28867 10.9386 8.483 11.5912 8.483C12.2512 8.483 12.8562 8.25567 13.4062 7.801L13.6702 8.329C13.4282 8.55633 13.1202 8.73967 12.7462 8.879C12.3722 9.011 11.9872 9.077 11.5912 9.077C10.7552 9.077 10.0952 8.824 9.61122 8.318C9.12722 7.812 8.88522 7.11533 8.88522 6.228C8.88522 5.66333 8.99155 5.16467 9.20422 4.732C9.42422 4.292 9.72855 3.95467 10.1172 3.72C10.5059 3.478 10.9532 3.357 11.4592 3.357C12.1852 3.357 12.7499 3.59167 13.1532 4.061C13.5639 4.53033 13.7692 5.183 13.7692 6.019V6.162H9.58922ZM11.4592 3.907C10.9532 3.907 10.5426 4.061 10.2272 4.369C9.91189 4.66967 9.71389 5.095 9.63322 5.645H13.1312C13.0872 5.08033 12.9222 4.65133 12.6362 4.358C12.3502 4.05733 11.9579 3.907 11.4592 3.907ZM17.5859 3.357C17.7692 3.357 17.9305 3.37167 18.0699 3.401L18.0369 4.006C17.8975 3.97667 17.7289 3.962 17.5309 3.962C16.9735 3.962 16.5555 4.14167 16.2769 4.501C16.0055 4.853 15.8699 5.27467 15.8699 5.766V9H15.2099V5.018C15.2099 4.446 15.1805 3.93633 15.1219 3.489H15.7599L15.8479 4.512C15.9872 4.138 16.2109 3.852 16.5189 3.654C16.8342 3.456 17.1899 3.357 17.5859 3.357ZM19.0448 3.489H19.7048V9H19.0448V3.489ZM19.8368 1.212V2.07H18.9458V1.212H19.8368ZM21.8998 6.162V6.195C21.8998 6.93567 22.0684 7.504 22.4058 7.9C22.7504 8.28867 23.2491 8.483 23.9018 8.483C24.5618 8.483 25.1668 8.25567 25.7168 7.801L25.9808 8.329C25.7388 8.55633 25.4308 8.73967 25.0568 8.879C24.6828 9.011 24.2978 9.077 23.9018 9.077C23.0658 9.077 22.4058 8.824 21.9218 8.318C21.4378 7.812 21.1958 7.11533 21.1958 6.228C21.1958 5.66333 21.3021 5.16467 21.5148 4.732C21.7348 4.292 22.0391 3.95467 22.4278 3.72C22.8164 3.478 23.2638 3.357 23.7698 3.357C24.4958 3.357 25.0604 3.59167 25.4638 4.061C25.8744 4.53033 26.0798 5.183 26.0798 6.019V6.162H21.8998ZM23.7698 3.907C23.2638 3.907 22.8531 4.061 22.5378 4.369C22.2224 4.66967 22.0244 5.095 21.9438 5.645H25.4418C25.3978 5.08033 25.2328 4.65133 24.9468 4.358C24.6608 4.05733 24.2684 3.907 23.7698 3.907ZM30.0834 3.357C31.4108 3.357 32.0744 4.06833 32.0744 5.491V9H31.4034V5.535C31.4034 4.985 31.2898 4.58167 31.0624 4.325C30.8424 4.06833 30.4941 3.94 30.0174 3.94C29.4674 3.94 29.0238 4.10867 28.6864 4.446C28.3491 4.78333 28.1804 5.238 28.1804 5.81V9H27.5204V5.018C27.5204 4.446 27.4911 3.93633 27.4324 3.489H28.0704L28.1584 4.501C28.3271 4.127 28.5801 3.84467 28.9174 3.654C29.2548 3.456 29.6434 3.357 30.0834 3.357ZM38.5548 0.903999V9H37.8838V7.944C37.7225 8.31067 37.4768 8.593 37.1468 8.791C36.8241 8.98167 36.4355 9.077 35.9808 9.077C35.4968 9.077 35.0678 8.95967 34.6938 8.725C34.3271 8.483 34.0411 8.14567 33.8358 7.713C33.6305 7.273 33.5278 6.767 33.5278 6.195C33.5278 5.623 33.6268 5.12433 33.8248 4.699C34.0301 4.26633 34.3161 3.93633 34.6828 3.709C35.0568 3.47433 35.4895 3.357 35.9808 3.357C36.4281 3.357 36.8131 3.45233 37.1358 3.643C37.4658 3.83367 37.7151 4.11233 37.8838 4.479V0.903999H38.5548ZM36.0688 8.483C36.6481 8.483 37.0955 8.285 37.4108 7.889C37.7261 7.493 37.8838 6.93567 37.8838 6.217C37.8838 5.49833 37.7261 4.941 37.4108 4.545C37.0955 4.14167 36.6518 3.94 36.0798 3.94C35.4931 3.94 35.0385 4.138 34.7158 4.534C34.3931 4.93 34.2318 5.48367 34.2318 6.195C34.2318 6.91367 34.3931 7.47467 34.7158 7.878C35.0385 8.28133 35.4895 8.483 36.0688 8.483ZM45.0538 3.489V9H44.3828V7.944C44.2215 8.31067 43.9758 8.593 43.6458 8.791C43.3232 8.98167 42.9345 9.077 42.4798 9.077C41.9885 9.077 41.5558 8.96333 41.1818 8.736C40.8152 8.50133 40.5292 8.17133 40.3238 7.746C40.1258 7.31333 40.0268 6.811 40.0268 6.239C40.0268 5.667 40.1295 5.16467 40.3348 4.732C40.5402 4.292 40.8262 3.95467 41.1928 3.72C41.5668 3.478 41.9958 3.357 42.4798 3.357C42.9272 3.357 43.3122 3.45233 43.6348 3.643C43.9648 3.83367 44.2142 4.11233 44.3828 4.479V3.489H45.0538ZM42.5788 8.483C43.1508 8.483 43.5945 8.285 43.9098 7.889C44.2252 7.493 44.3828 6.93567 44.3828 6.217C44.3828 5.491 44.2252 4.93 43.9098 4.534C43.5945 4.138 43.1472 3.94 42.5678 3.94C41.9885 3.94 41.5375 4.14533 41.2148 4.556C40.8922 4.95933 40.7308 5.52033 40.7308 6.239C40.7308 6.95033 40.8922 7.504 41.2148 7.9C41.5375 8.28867 41.9922 8.483 42.5788 8.483ZM52.9706 9.088C52.2592 9.088 51.6396 8.92667 51.1116 8.604C50.5909 8.28133 50.1876 7.81933 49.9016 7.218C49.6229 6.61667 49.4836 5.90533 49.4836 5.084C49.4836 4.26267 49.6229 3.55133 49.9016 2.95C50.1802 2.34867 50.5799 1.88667 51.1006 1.564C51.6286 1.24133 52.2519 1.08 52.9706 1.08C53.6892 1.08 54.3126 1.24133 54.8406 1.564C55.3686 1.88667 55.7719 2.34867 56.0506 2.95C56.3292 3.544 56.4686 4.25167 56.4686 5.073C56.4686 5.89433 56.3256 6.60933 56.0396 7.218C55.7609 7.81933 55.3576 8.28133 54.8296 8.604C54.3089 8.92667 53.6892 9.088 52.9706 9.088ZM52.9706 8.483C53.8506 8.483 54.5326 8.186 55.0166 7.592C55.5079 6.998 55.7536 6.15833 55.7536 5.073C55.7536 3.98767 55.5116 3.15167 55.0276 2.565C54.5436 1.97833 53.8579 1.685 52.9706 1.685C52.0906 1.685 51.4049 1.982 50.9136 2.576C50.4296 3.16267 50.1876 3.995 50.1876 5.073C50.1876 6.151 50.4296 6.99067 50.9136 7.592C51.4049 8.186 52.0906 8.483 52.9706 8.483ZM60.6557 3.357C61.983 3.357 62.6467 4.06833 62.6467 5.491V9H61.9757V5.535C61.9757 4.985 61.862 4.58167 61.6347 4.325C61.4147 4.06833 61.0664 3.94 60.5897 3.94C60.0397 3.94 59.596 4.10867 59.2587 4.446C58.9214 4.78333 58.7527 5.238 58.7527 5.81V9H58.0927V5.018C58.0927 4.446 58.0634 3.93633 58.0047 3.489H58.6427L58.7307 4.501C58.8994 4.127 59.1524 3.84467 59.4897 3.654C59.827 3.456 60.2157 3.357 60.6557 3.357ZM64.8041 6.162V6.195C64.8041 6.93567 64.9727 7.504 65.3101 7.9C65.6547 8.28867 66.1534 8.483 66.8061 8.483C67.4661 8.483 68.0711 8.25567 68.6211 7.801L68.8851 8.329C68.6431 8.55633 68.3351 8.73967 67.9611 8.879C67.5871 9.011 67.2021 9.077 66.8061 9.077C65.9701 9.077 65.3101 8.824 64.8261 8.318C64.3421 7.812 64.1001 7.11533 64.1001 6.228C64.1001 5.66333 64.2064 5.16467 64.4191 4.732C64.6391 4.292 64.9434 3.95467 65.3321 3.72C65.7207 3.478 66.1681 3.357 66.6741 3.357C67.4001 3.357 67.9647 3.59167 68.3681 4.061C68.7787 4.53033 68.9841 5.183 68.9841 6.019V6.162H64.8041ZM66.6741 3.907C66.1681 3.907 65.7574 4.061 65.4421 4.369C65.1267 4.66967 64.9287 5.095 64.8481 5.645H68.3461C68.3021 5.08033 68.1371 4.65133 67.8511 4.358C67.5651 4.05733 67.1727 3.907 66.6741 3.907ZM72.0734 9.594L74.8784 0.772H75.5494L72.7334 9.594H72.0734ZM81.4052 3.357C81.5885 3.357 81.7499 3.37167 81.8892 3.401L81.8562 4.006C81.7169 3.97667 81.5482 3.962 81.3502 3.962C80.7929 3.962 80.3749 4.14167 80.0962 4.501C79.8249 4.853 79.6892 5.27467 79.6892 5.766V9H79.0292V5.018C79.0292 4.446 78.9999 3.93633 78.9412 3.489H79.5792L79.6672 4.512C79.8065 4.138 80.0302 3.852 80.3382 3.654C80.6535 3.456 81.0092 3.357 81.4052 3.357ZM83.1088 6.162V6.195C83.1088 6.93567 83.2774 7.504 83.6148 7.9C83.9594 8.28867 84.4581 8.483 85.1108 8.483C85.7708 8.483 86.3758 8.25567 86.9258 7.801L87.1898 8.329C86.9478 8.55633 86.6398 8.73967 86.2658 8.879C85.8918 9.011 85.5068 9.077 85.1108 9.077C84.2748 9.077 83.6148 8.824 83.1308 8.318C82.6468 7.812 82.4048 7.11533 82.4048 6.228C82.4048 5.66333 82.5111 5.16467 82.7238 4.732C82.9438 4.292 83.2481 3.95467 83.6368 3.72C84.0254 3.478 84.4728 3.357 84.9788 3.357C85.7048 3.357 86.2694 3.59167 86.6728 4.061C87.0834 4.53033 87.2888 5.183 87.2888 6.019V6.162H83.1088ZM84.9788 3.907C84.4728 3.907 84.0621 4.061 83.7468 4.369C83.4314 4.66967 83.2334 5.095 83.1528 5.645H86.6508C86.6068 5.08033 86.4418 4.65133 86.1558 4.358C85.8698 4.05733 85.4774 3.907 84.9788 3.907ZM93.4484 3.489V9.022C93.4484 9.82133 93.2504 10.4263 92.8544 10.837C92.4584 11.2477 91.8754 11.453 91.1054 11.453C90.2841 11.453 89.5691 11.255 88.9604 10.859L89.0924 10.276C89.4517 10.4887 89.7817 10.639 90.0824 10.727C90.3831 10.815 90.7277 10.859 91.1164 10.859C91.6664 10.859 92.0807 10.7087 92.3594 10.408C92.6454 10.1073 92.7884 9.66733 92.7884 9.088V7.669C92.6197 8.043 92.3704 8.33267 92.0404 8.538C91.7104 8.736 91.3144 8.835 90.8524 8.835C90.3684 8.835 89.9394 8.72133 89.5654 8.494C89.1914 8.25933 88.8981 7.93667 88.6854 7.526C88.4801 7.108 88.3774 6.63133 88.3774 6.096C88.3774 5.55333 88.4801 5.07667 88.6854 4.666C88.8981 4.248 89.1914 3.92533 89.5654 3.698C89.9394 3.47067 90.3684 3.357 90.8524 3.357C91.3144 3.357 91.7067 3.45233 92.0294 3.643C92.3594 3.83367 92.6087 4.11233 92.7774 4.479V3.489H93.4484ZM90.9404 8.23C91.5124 8.23 91.9597 8.03933 92.2824 7.658C92.6124 7.27667 92.7774 6.756 92.7774 6.096C92.7774 5.42867 92.6124 4.90433 92.2824 4.523C91.9597 4.13433 91.5124 3.94 90.9404 3.94C90.3611 3.94 89.9064 4.13433 89.5764 4.523C89.2464 4.90433 89.0814 5.42867 89.0814 6.096C89.0814 6.76333 89.2464 7.28767 89.5764 7.669C89.9064 8.043 90.3611 8.23 90.9404 8.23ZM99.7044 3.489V9H99.0554V7.999C98.8794 8.351 98.6301 8.61867 98.3074 8.802C97.9847 8.98533 97.6144 9.077 97.1964 9.077C96.5511 9.077 96.0634 8.89733 95.7334 8.538C95.4034 8.17867 95.2384 7.647 95.2384 6.943V3.489H95.8984V6.899C95.8984 7.44167 96.0084 7.84133 96.2284 8.098C96.4484 8.35467 96.7894 8.483 97.2514 8.483C97.7941 8.483 98.2267 8.31433 98.5494 7.977C98.8721 7.63233 99.0334 7.17767 99.0334 6.613V3.489H99.7044ZM101.534 0.903999H102.194V9H101.534V0.903999ZM108.712 3.489V9H108.041V7.944C107.88 8.31067 107.634 8.593 107.304 8.791C106.981 8.98167 106.593 9.077 106.138 9.077C105.647 9.077 105.214 8.96333 104.84 8.736C104.473 8.50133 104.187 8.17133 103.982 7.746C103.784 7.31333 103.685 6.811 103.685 6.239C103.685 5.667 103.788 5.16467 103.993 4.732C104.198 4.292 104.484 3.95467 104.851 3.72C105.225 3.478 105.654 3.357 106.138 3.357C106.585 3.357 106.97 3.45233 107.293 3.643C107.623 3.83367 107.872 4.11233 108.041 4.479V3.489H108.712ZM106.237 8.483C106.809 8.483 107.253 8.285 107.568 7.889C107.883 7.493 108.041 6.93567 108.041 6.217C108.041 5.491 107.883 4.93 107.568 4.534C107.253 4.138 106.805 3.94 106.226 3.94C105.647 3.94 105.196 4.14533 104.873 4.556C104.55 4.95933 104.389 5.52033 104.389 6.239C104.389 6.95033 104.55 7.504 104.873 7.9C105.196 8.28867 105.65 8.483 106.237 8.483ZM112.912 3.357C113.095 3.357 113.257 3.37167 113.396 3.401L113.363 4.006C113.224 3.97667 113.055 3.962 112.857 3.962C112.3 3.962 111.882 4.14167 111.603 4.501C111.332 4.853 111.196 5.27467 111.196 5.766V9H110.536V5.018C110.536 4.446 110.507 3.93633 110.448 3.489H111.086L111.174 4.512C111.313 4.138 111.537 3.852 111.845 3.654C112.16 3.456 112.516 3.357 112.912 3.357ZM4.632 25.406V26H0.485V25.406H2.223V19.07L0.606 20.115V19.422L2.52 18.168H2.905V25.406H4.632ZM9.1597 21.127C9.6437 21.127 10.0727 21.2333 10.4467 21.446C10.8207 21.6513 11.1104 21.941 11.3157 22.315C11.521 22.689 11.6237 23.118 11.6237 23.602C11.6237 24.0787 11.5174 24.5077 11.3047 24.889C11.092 25.263 10.795 25.5563 10.4137 25.769C10.0397 25.9817 9.61437 26.088 9.1377 26.088C8.2137 26.088 7.4987 25.7617 6.9927 25.109C6.49404 24.4563 6.2447 23.5213 6.2447 22.304C6.2447 20.9693 6.50137 19.9317 7.0147 19.191C7.53537 18.4503 8.26137 18.08 9.1927 18.08C9.6327 18.08 10.0617 18.168 10.4797 18.344C10.905 18.5127 11.2827 18.7583 11.6127 19.081L11.3267 19.62C10.9527 19.2973 10.5934 19.059 10.2487 18.905C9.90404 18.751 9.55204 18.674 9.1927 18.674C8.48137 18.674 7.92404 18.993 7.5207 19.631C7.1247 20.269 6.9267 21.16 6.9267 22.304V22.601C7.08804 22.1463 7.37037 21.787 7.7737 21.523C8.17704 21.259 8.63904 21.127 9.1597 21.127ZM9.1157 25.494C9.65837 25.494 10.0947 25.3217 10.4247 24.977C10.762 24.6323 10.9307 24.174 10.9307 23.602C10.9307 23.0447 10.762 22.5937 10.4247 22.249C10.0874 21.9043 9.64737 21.732 9.1047 21.732C8.73804 21.732 8.40804 21.8127 8.1147 21.974C7.8287 22.128 7.60504 22.348 7.4437 22.634C7.28237 22.92 7.2017 23.2427 7.2017 23.602C7.2017 24.1667 7.3777 24.625 7.7297 24.977C8.08904 25.3217 8.55104 25.494 9.1157 25.494ZM15.6784 20.357C16.1624 20.357 16.5877 20.478 16.9544 20.72C17.3284 20.9547 17.6181 21.292 17.8234 21.732C18.0287 22.1647 18.1314 22.667 18.1314 23.239C18.1314 23.811 18.0287 24.3097 17.8234 24.735C17.6254 25.1603 17.3394 25.4903 16.9654 25.725C16.5914 25.9597 16.1624 26.077 15.6784 26.077C15.2164 26.077 14.8204 25.978 14.4904 25.78C14.1677 25.5747 13.9257 25.2813 13.7644 24.9V28.376H13.1044V22.018C13.1044 21.446 13.0751 20.9363 13.0164 20.489H13.6544L13.7424 21.567C13.9037 21.1783 14.1494 20.8813 14.4794 20.676C14.8167 20.4633 15.2164 20.357 15.6784 20.357ZM15.5904 25.483C16.1697 25.483 16.6207 25.2887 16.9434 24.9C17.2661 24.504 17.4274 23.9503 17.4274 23.239C17.4274 22.5203 17.2661 21.9593 16.9434 21.556C16.6207 21.1453 16.1734 20.94 15.6014 20.94C15.0147 20.94 14.5637 21.138 14.2484 21.534C13.9331 21.93 13.7754 22.491 13.7754 23.217C13.7754 23.9357 13.9331 24.493 14.2484 24.889C14.5637 25.285 15.0111 25.483 15.5904 25.483ZM24.171 26H23.346L21.487 23.679L19.65 26H18.814L21.08 23.162L18.935 20.489H19.771L21.487 22.645L23.203 20.489H24.039L21.905 23.162L24.171 26ZM26.9562 26.594L29.7612 17.772H30.4322L27.6162 26.594H26.9562ZM31.2073 18.168H31.8893V25.406H35.9373V26H31.2073V18.168ZM42.0213 25.406V26H37.0823V25.494L39.8653 22.381C40.2613 21.9263 40.5473 21.5267 40.7233 21.182C40.8993 20.83 40.9873 20.4817 40.9873 20.137C40.9873 19.6677 40.8516 19.3083 40.5803 19.059C40.3163 18.8023 39.9349 18.674 39.4363 18.674C38.6663 18.674 37.9146 18.9893 37.1813 19.62L36.8953 19.081C37.2033 18.7803 37.5883 18.5383 38.0503 18.355C38.5123 18.1717 38.9743 18.08 39.4363 18.08C40.1329 18.08 40.6793 18.2633 41.0753 18.63C41.4786 18.9893 41.6803 19.4807 41.6803 20.104C41.6803 20.5513 41.5739 20.9877 41.3613 21.413C41.1559 21.8383 40.8186 22.3113 40.3493 22.832L37.9953 25.406H42.0213ZM47.022 21.974C47.484 22.106 47.836 22.337 48.078 22.667C48.32 22.9897 48.441 23.3967 48.441 23.888C48.441 24.5627 48.2173 25.098 47.77 25.494C47.33 25.8827 46.7286 26.077 45.966 26.077C45.4673 26.077 44.9906 25.989 44.536 25.813C44.0813 25.637 43.6926 25.3913 43.37 25.076L43.656 24.537C44.0153 24.8523 44.382 25.0907 44.756 25.252C45.1373 25.406 45.5406 25.483 45.966 25.483C46.538 25.483 46.978 25.3473 47.286 25.076C47.6013 24.7973 47.759 24.4013 47.759 23.888C47.759 22.8467 47.1136 22.326 45.823 22.326H44.987V21.721H45.658C46.274 21.721 46.747 21.5817 47.077 21.303C47.4143 21.017 47.583 20.61 47.583 20.082C47.583 19.6347 47.4473 19.29 47.176 19.048C46.9046 18.7987 46.5233 18.674 46.032 18.674C45.262 18.674 44.5103 18.9893 43.777 19.62L43.491 19.081C43.8063 18.7657 44.1876 18.52 44.635 18.344C45.0896 18.168 45.559 18.08 46.043 18.08C46.725 18.08 47.2676 18.2597 47.671 18.619C48.0743 18.971 48.276 19.4477 48.276 20.049C48.276 20.5037 48.1623 20.9033 47.935 21.248C47.715 21.5853 47.4106 21.8273 47.022 21.974ZM50.9997 25.043V25.747C50.9997 26.0257 50.9557 26.2823 50.8677 26.517C50.7797 26.7517 50.633 26.9717 50.4277 27.177L50.0757 26.902C50.325 26.6233 50.4643 26.3227 50.4937 26H50.0647V25.043H50.9997ZM57.3761 25.406V26H53.2291V25.406H54.9671V19.07L53.3501 20.115V19.422L55.2641 18.168H55.6491V25.406H57.3761ZM60.8478 22.876C60.2685 22.876 59.8175 22.6743 59.4948 22.271C59.1722 21.8677 59.0108 21.27 59.0108 20.478C59.0108 19.686 59.1722 19.092 59.4948 18.696C59.8175 18.2927 60.2685 18.091 60.8478 18.091C61.4345 18.091 61.8892 18.2927 62.2118 18.696C62.5418 19.092 62.7068 19.686 62.7068 20.478C62.7068 21.27 62.5418 21.8677 62.2118 22.271C61.8818 22.6743 61.4272 22.876 60.8478 22.876ZM60.8588 26L65.3798 18.168H66.0838L61.5628 26H60.8588ZM60.8478 22.348C61.2585 22.348 61.5592 22.1977 61.7498 21.897C61.9478 21.5963 62.0468 21.1233 62.0468 20.478C62.0468 19.84 61.9478 19.3707 61.7498 19.07C61.5592 18.762 61.2585 18.608 60.8478 18.608C60.4518 18.608 60.1548 18.762 59.9568 19.07C59.7588 19.3707 59.6598 19.84 59.6598 20.478C59.6598 21.1233 59.7552 21.5963 59.9458 21.897C60.1438 22.1977 60.4445 22.348 60.8478 22.348ZM66.0838 26.077C65.5045 26.077 65.0498 25.8753 64.7198 25.472C64.3972 25.0687 64.2358 24.471 64.2358 23.679C64.2358 22.8797 64.3972 22.282 64.7198 21.886C65.0425 21.49 65.4972 21.292 66.0838 21.292C66.6705 21.292 67.1252 21.49 67.4478 21.886C67.7705 22.282 67.9318 22.8797 67.9318 23.679C67.9318 24.471 67.7668 25.0687 67.4368 25.472C67.1142 25.8753 66.6632 26.077 66.0838 26.077ZM66.0838 25.549C66.4872 25.549 66.7842 25.3987 66.9748 25.098C67.1728 24.7973 67.2718 24.3243 67.2718 23.679C67.2718 23.041 67.1728 22.5717 66.9748 22.271C66.7842 21.9703 66.4872 21.82 66.0838 21.82C65.6805 21.82 65.3798 21.9703 65.1818 22.271C64.9912 22.5717 64.8958 23.041 64.8958 23.679C64.8958 24.3243 64.9912 24.7973 65.1818 25.098C65.3798 25.3987 65.6805 25.549 66.0838 25.549Z" fill="black"/>
</svg>
