<svg width="57" height="46" viewBox="0 0 57 46" fill="none" xmlns="http://www.w3.org/2000/svg">
<path d="M15.73 22.418C16.0753 22.418 16.248 22.825 16.248 23.639C16.248 24.8723 15.6313 26.0317 14.398 27.117C13.1893 28.1777 11.7957 28.708 10.217 28.708C9.20567 28.708 8.23133 28.4613 7.294 27.968C5.296 26.8827 4.297 24.9957 4.297 22.307C4.297 20.4077 4.815 18.5453 5.851 16.72C7.28167 14.2287 9.329 12.2553 11.993 10.8C14.6817 9.34467 17.2963 8.617 19.837 8.617C21.687 8.617 23.204 9.024 24.388 9.838C25.72 10.7507 26.386 12.1073 26.386 13.908C26.386 16.202 25.276 19.8033 23.056 24.712C20.836 29.596 19.726 32.3587 19.726 33C19.726 33.1973 19.7877 33.259 19.911 33.185C20.5523 32.7657 23.4877 29.4233 28.717 23.158C33.971 16.868 37.6217 12.983 39.669 11.503C41.4943 10.1463 43.0113 9.135 44.22 8.469C45.4533 7.77833 46.7113 7.433 47.994 7.433C48.3393 7.433 48.5983 7.44533 48.771 7.47C49.437 7.51933 49.77 7.86467 49.77 8.506C49.77 8.82666 49.659 8.987 49.437 8.987C49.4123 8.987 49.2397 8.93766 48.919 8.839C48.5983 8.71566 48.327 8.654 48.105 8.654C44.6517 8.654 40.002 11.7743 34.156 18.015C31.9607 20.3583 29.2843 23.5157 26.127 27.487C22.9943 31.4583 21.1443 33.6043 20.577 33.925C18.579 35.0597 17.4567 35.627 17.21 35.627C17.136 35.627 17.099 35.5037 17.099 35.257C17.099 34.443 17.7897 32.371 19.171 29.041C19.7383 27.7583 20.5647 25.8343 21.65 23.269L23.352 18.274C23.944 16.5967 24.24 15.3757 24.24 14.611C24.24 12.909 23.7467 11.614 22.76 10.726C21.7733 9.838 20.355 9.394 18.505 9.394C16.655 9.394 14.6693 10.0477 12.548 11.355C10.254 12.835 8.53967 14.6603 7.405 16.831C6.27033 19.0017 5.703 20.8393 5.703 22.344C5.703 23.8487 6.01133 25.0327 6.628 25.896C7.63933 27.302 8.98367 28.005 10.661 28.005C11.9437 28.005 13.0783 27.5857 14.065 26.747C15.0517 25.8837 15.545 24.7983 15.545 23.491C15.545 23.2197 15.508 22.973 15.434 22.751C15.3847 22.529 15.4833 22.418 15.73 22.418Z" fill="#C07979"/>
<path d="M15.73 19.418C16.0753 19.418 16.248 19.825 16.248 20.639C16.248 21.8723 15.6313 23.0317 14.398 24.117C13.1893 25.1777 11.7957 25.708 10.217 25.708C9.20567 25.708 8.23133 25.4613 7.294 24.968C5.296 23.8827 4.297 21.9957 4.297 19.307C4.297 17.4077 4.815 15.5453 5.851 13.72C7.28167 11.2287 9.329 9.25533 11.993 7.8C14.6817 6.34467 17.2963 5.617 19.837 5.617C21.687 5.617 23.204 6.024 24.388 6.838C25.72 7.75066 26.386 9.10733 26.386 10.908C26.386 13.202 25.276 16.8033 23.056 21.712C20.836 26.596 19.726 29.3587 19.726 30C19.726 30.1973 19.7877 30.259 19.911 30.185C20.5523 29.7657 23.4877 26.4233 28.717 20.158C33.971 13.868 37.6217 9.983 39.669 8.503C41.4943 7.14633 43.0113 6.135 44.22 5.469C45.4533 4.77833 46.7113 4.433 47.994 4.433C48.3393 4.433 48.5983 4.44533 48.771 4.47C49.437 4.51933 49.77 4.86467 49.77 5.506C49.77 5.82666 49.659 5.987 49.437 5.987C49.4123 5.987 49.2397 5.93766 48.919 5.839C48.5983 5.71566 48.327 5.654 48.105 5.654C44.6517 5.654 40.002 8.77433 34.156 15.015C31.9607 17.3583 29.2843 20.5157 26.127 24.487C22.9943 28.4583 21.1443 30.6043 20.577 30.925C18.579 32.0597 17.4567 32.627 17.21 32.627C17.136 32.627 17.099 32.5037 17.099 32.257C17.099 31.443 17.7897 29.371 19.171 26.041C19.7383 24.7583 20.5647 22.8343 21.65 20.269L23.352 15.274C23.944 13.5967 24.24 12.3757 24.24 11.611C24.24 9.909 23.7467 8.614 22.76 7.726C21.7733 6.838 20.355 6.394 18.505 6.394C16.655 6.394 14.6693 7.04767 12.548 8.355C10.254 9.835 8.53967 11.6603 7.405 13.831C6.27033 16.0017 5.703 17.8393 5.703 19.344C5.703 20.8487 6.01133 22.0327 6.628 22.896C7.63933 24.302 8.98367 25.005 10.661 25.005C11.9437 25.005 13.0783 24.5857 14.065 23.747C15.0517 22.8837 15.545 21.7983 15.545 20.491C15.545 20.2197 15.508 19.973 15.434 19.751C15.3847 19.529 15.4833 19.418 15.73 19.418Z" fill="#B17171"/>
<line x1="17.0684" y1="41.4417" x2="34.6767" y2="19.3069" stroke="#C07979"/>
<line x1="4.37114e-08" y1="35.5" x2="34" y2="35.5" stroke="#C07979"/>
<path d="M23.323 45.5884L7.46865 37.2049L38.9984 36.875L23.323 45.5884Z" fill="#C07979" fill-opacity="0.65"/>
</svg>
